<?xml version="1.0" standalone="no"?>
<!DOCTYPE svg PUBLIC "-//W3C//DTD SVG 20010904//EN"
 "http://www.w3.org/TR/2001/REC-SVG-20010904/DTD/svg10.dtd">
<svg version="1.0" xmlns="http://www.w3.org/2000/svg"
 width="1024.000000pt" height="1024.000000pt" viewBox="0 0 1024.000000 1024.000000"
 preserveAspectRatio="xMidYMid meet">
<metadata>
Created by potrace 1.16, written by Peter Selinger 2001-2019
</metadata>
<g transform="translate(0.000000,1024.000000) scale(0.100000,-0.100000)"
fill="#000000" stroke="none">
<path d="M4966 9934 c-3 -26 -6 -104 -6 -173 0 -138 11 -177 62 -214 39 -29
151 -34 198 -10 73 38 87 85 92 316 l3 107 -31 0 -31 0 -6 -154 c-7 -207 -17
-226 -117 -226 -37 0 -56 6 -77 24 l-28 25 2 170 c2 142 0 171 -11 171 -8 0
-21 2 -29 6 -11 4 -16 -7 -21 -42z"/>
<path d="M5449 9967 c-4 -6 -56 -433 -53 -436 1 -1 73 -12 160 -23 130 -17
158 -18 165 -6 23 35 6 43 -124 60 -71 9 -130 18 -132 20 -3 4 14 130 18 135
2 2 55 -4 117 -12 62 -8 114 -14 116 -12 1 1 4 13 6 27 3 25 1 25 -102 38
-143 19 -133 12 -125 80 4 31 9 59 11 61 4 4 209 -18 237 -25 13 -4 17 1 17
24 0 34 4 33 -165 52 -49 6 -102 13 -117 15 -16 2 -29 3 -29 2z"/>
<path d="M4590 9951 c-120 -37 -180 -145 -151 -274 26 -117 112 -184 222 -174
33 3 71 12 84 21 22 14 27 14 67 -4 55 -25 64 -25 71 1 5 17 -1 24 -33 36
l-39 16 21 41 c26 50 29 152 6 207 -44 102 -152 159 -248 130z m116 -67 c18
-9 43 -32 55 -50 26 -43 36 -138 19 -188 -10 -32 -16 -37 -34 -32 -54 16 -76
18 -77 7 -5 -31 -2 -36 21 -42 l25 -6 -29 -12 c-60 -24 -144 17 -172 86 -21
50 -18 151 6 191 35 57 118 78 186 46z"/>
<path d="M4250 9878 c0 -20 39 -252 61 -365 8 -39 15 -53 27 -53 45 1 45 8 8
222 -20 113 -36 208 -36 211 0 4 -13 7 -30 7 -24 0 -30 -4 -30 -22z"/>
<path d="M6065 9868 c-12 -34 -95 -412 -91 -415 11 -11 174 -43 220 -43 108 0
178 89 184 235 3 71 1 84 -20 114 -36 53 -65 69 -173 96 -117 29 -114 29 -120
13z m165 -84 c71 -21 93 -57 87 -141 -6 -78 -39 -142 -87 -165 -32 -15 -42
-16 -109 -3 -41 8 -75 16 -76 17 -1 2 14 74 34 161 l35 158 32 -6 c18 -3 55
-12 84 -21z"/>
<path d="M3902 9823 c-17 -3 -21 -9 -17 -26 3 -12 25 -107 49 -212 29 -129 48
-191 57 -192 8 -2 68 10 134 25 120 28 137 38 116 71 -7 12 -23 10 -99 -9 -50
-12 -97 -20 -103 -18 -7 2 -31 83 -54 183 -22 98 -45 179 -50 180 -6 1 -20 0
-33 -2z"/>
<path d="M6487 9617 c-52 -159 -58 -215 -27 -264 39 -65 164 -101 234 -68 48
23 74 70 127 233 37 114 42 134 29 142 -37 24 -45 12 -94 -137 -31 -92 -57
-155 -72 -170 -54 -54 -184 -2 -184 73 0 12 21 88 46 169 25 81 44 148 42 150
-2 2 -15 6 -29 10 -25 6 -26 4 -72 -138z"/>
<path d="M3655 9743 c-11 -2 -61 -18 -112 -34 l-91 -30 69 -206 c37 -113 70
-207 72 -209 5 -5 166 50 202 69 39 20 71 56 78 88 15 62 -35 139 -90 139 -23
0 -23 1 -9 22 26 37 20 91 -13 127 -16 17 -36 31 -44 31 -9 0 -21 2 -29 4 -7
2 -22 2 -33 -1z m55 -73 c27 -27 26 -76 -2 -94 -36 -22 -129 -49 -138 -40 -4
5 -15 32 -23 60 l-15 52 66 20 c85 26 88 26 112 2z m84 -182 c21 -30 20 -71
-2 -91 -18 -17 -123 -57 -148 -57 -13 0 -58 119 -48 129 13 14 103 40 141 40
32 1 45 -4 57 -21z"/>
<path d="M3287 9618 c-15 -12 -11 -24 38 -136 61 -135 76 -187 64 -219 -11
-30 -64 -64 -108 -70 -57 -8 -81 21 -150 177 -60 136 -75 154 -110 131 -12 -8
-3 -35 49 -152 71 -158 106 -204 164 -214 69 -13 159 29 204 95 18 27 23 44
19 76 -5 51 -125 324 -141 324 -7 0 -20 -6 -29 -12z"/>
<path d="M7067 9328 c-91 -177 -97 -193 -81 -205 10 -7 23 -13 29 -13 6 0 44
67 85 150 41 82 76 148 78 146 2 -2 -8 -84 -22 -182 -15 -97 -25 -178 -24
-179 2 -1 13 -7 25 -14 20 -10 34 1 159 122 l137 132 -82 -158 c-46 -87 -82
-160 -80 -161 10 -9 51 -27 53 -24 12 14 198 389 195 392 -2 2 -19 11 -37 20
l-32 17 -141 -138 c-102 -100 -139 -131 -135 -113 3 14 15 90 26 170 11 80 23
155 25 167 4 16 -3 26 -29 42 -18 12 -37 21 -42 21 -5 0 -53 -87 -107 -192z"/>
<path d="M2713 9343 c-57 -32 -103 -61 -103 -66 0 -6 177 -317 209 -366 8 -12
13 -12 35 2 l25 17 -45 76 c-25 42 -44 77 -42 78 2 1 36 21 76 45 43 25 81 56
93 74 51 84 -9 197 -105 197 -31 0 -65 -14 -143 -57z m176 -20 c11 -10 24 -32
27 -49 7 -36 -21 -67 -103 -114 l-52 -30 -36 66 c-20 36 -35 67 -33 69 1 1 32
19 68 39 73 40 98 44 129 19z"/>
<path d="M2363 9122 c-67 -48 -121 -92 -119 -97 2 -6 54 -82 116 -170 61 -88
115 -166 119 -174 7 -11 40 8 144 80 75 52 136 96 136 99 0 3 -6 14 -14 25
-15 18 -19 16 -120 -53 -57 -40 -109 -72 -114 -72 -14 0 -82 101 -75 111 3 5
45 36 94 70 50 34 90 65 90 69 0 3 -6 15 -14 25 -12 17 -19 15 -110 -49 -53
-36 -100 -65 -104 -62 -4 2 -22 25 -40 50 l-33 45 39 28 c22 15 69 49 106 76
60 43 65 49 54 67 -7 11 -17 20 -23 19 -5 0 -65 -40 -132 -87z"/>
<path d="M7580 9055 c-102 -69 -186 -130 -188 -135 -2 -4 7 -15 19 -23 20 -15
25 -13 79 25 l58 41 75 -52 74 -52 -18 -67 -19 -67 22 -17 c13 -10 27 -16 33
-15 9 3 104 402 105 441 0 19 -26 45 -45 46 -6 0 -94 -56 -195 -125z"/>
<path d="M7883 8830 l-132 -170 97 -76 c53 -43 103 -82 110 -87 9 -7 17 -4 27
9 8 10 15 21 15 24 0 3 -34 32 -76 64 -41 33 -77 63 -80 68 -3 5 41 68 98 140
144 185 133 167 112 183 -11 8 -23 14 -29 14 -5 0 -69 -76 -142 -169z"/>
<path d="M2067 8895 c-16 -8 -69 -49 -117 -92 -76 -65 -88 -79 -77 -92 41 -52
271 -311 276 -311 4 0 16 6 27 14 22 17 21 19 -53 104 l-53 60 40 36 c49 44
65 44 187 9 l94 -27 26 26 26 26 -69 22 c-38 12 -92 24 -121 27 l-52 6 16 23
c8 13 15 42 15 63 -1 91 -88 146 -165 106z m66 -56 c29 -16 37 -28 37 -64 0
-24 -13 -42 -67 -93 l-68 -63 -47 53 -47 53 50 45 c43 38 105 80 117 80 2 0
13 -5 25 -11z"/>
<path d="M8171 8604 c-138 -160 -142 -166 -125 -185 9 -10 20 -19 24 -19 7 0
219 239 272 306 16 20 16 22 -5 42 l-22 21 -144 -165z"/>
<path d="M3269 8340 c-36 -4 -166 -26 -290 -48 -123 -23 -294 -52 -379 -66
-157 -25 -385 -83 -540 -137 -119 -42 -264 -77 -399 -98 l-116 -18 89 -42
c114 -54 177 -70 306 -77 81 -5 110 -11 125 -25 78 -69 337 -120 527 -102 83
8 88 8 134 -19 62 -35 166 -52 276 -45 53 3 88 2 88 -4 0 -20 66 -49 114 -49
37 0 55 -6 78 -25 24 -20 40 -25 88 -25 41 0 61 -4 67 -14 11 -20 63 -46 93
-46 13 0 48 -10 78 -22 45 -19 59 -20 92 -11 22 5 40 6 40 2 0 -19 42 -49 68
-49 15 0 41 9 59 19 27 17 33 18 43 5 29 -34 128 -1 152 51 6 14 14 25 18 25
4 0 33 -44 65 -97 57 -97 135 -206 157 -219 6 -4 19 4 29 17 l18 24 62 -17
c35 -9 65 -15 67 -13 3 2 -8 18 -22 36 -35 42 -26 48 24 15 48 -32 60 -33 60
-3 l0 22 18 -23 c14 -18 36 -26 107 -37 50 -8 93 -15 96 -15 4 0 9 -15 12 -33
3 -18 12 -49 20 -69 l15 -36 72 14 c93 17 273 66 380 102 75 25 85 32 88 55 2
14 -4 39 -12 55 l-16 30 53 30 c28 16 61 38 71 49 16 15 31 18 87 15 48 -3 77
0 99 12 27 13 39 14 78 3 26 -7 54 -19 62 -28 14 -16 510 -409 578 -460 25
-18 45 -24 78 -22 25 1 51 6 57 11 7 6 35 13 62 16 28 3 82 9 120 14 39 4 79
13 90 19 11 6 43 11 71 11 28 0 65 7 82 16 36 18 60 55 44 65 -6 3 -130 78
-276 166 l-265 160 52 7 c47 7 60 4 132 -30 74 -34 88 -37 185 -39 69 -2 129
-10 175 -23 39 -12 108 -22 155 -24 60 -3 108 -12 165 -32 73 -26 93 -28 230
-30 83 -1 184 -5 225 -8 54 -6 88 -4 121 7 34 10 62 12 109 5 97 -13 203 12
239 56 8 9 28 16 45 16 47 1 108 32 147 77 19 21 50 49 70 61 21 12 44 33 53
47 28 42 20 66 -40 119 l-55 48 -112 -12 c-254 -29 -607 -11 -982 50 -176 28
-197 35 -730 215 -351 118 -583 191 -640 202 -112 19 -218 12 -306 -20 -63
-23 -79 -32 -208 -122 l-65 -45 -30 28 c-87 80 -219 114 -343 88 -125 -26
-258 -97 -418 -221 l-93 -73 -89 48 c-50 26 -111 62 -137 81 -26 19 -61 44
-79 57 -18 13 -45 26 -60 29 -20 4 -38 21 -64 62 -91 144 -228 239 -423 293
-84 23 -263 32 -371 18z m376 -59 c125 -37 233 -97 305 -170 36 -36 73 -81 83
-99 18 -31 18 -32 0 -38 -56 -16 -110 -53 -136 -91 -16 -24 -33 -43 -38 -43
-6 0 -35 -12 -66 -27 -63 -31 -122 -93 -146 -153 l-16 -42 92 7 c109 8 213 -6
277 -38 52 -25 54 -45 12 -89 -33 -36 -72 -38 -72 -4 0 37 -14 39 -55 6 -65
-52 -105 -52 -105 0 0 39 -13 44 -52 20 -42 -25 -85 -25 -123 0 -18 12 -47 20
-71 20 -40 0 -66 17 -76 49 -3 11 -23 15 -79 15 -67 1 -75 3 -84 24 -8 19 -17
22 -67 22 -58 0 -108 13 -108 28 0 5 32 22 70 37 39 16 69 29 68 31 -2 1 -39
-7 -83 -18 -112 -28 -318 -31 -393 -4 -30 10 -50 21 -45 25 4 4 37 13 73 20
86 16 228 64 288 96 26 15 38 23 27 20 -11 -4 -72 -23 -135 -41 -330 -99 -639
-106 -835 -19 l-50 22 60 7 c171 21 541 93 531 103 -2 2 -50 -5 -107 -16 -373
-71 -717 -72 -874 -2 l-40 18 40 8 c140 25 208 43 361 91 225 71 378 107 603
144 102 17 258 44 346 60 245 45 280 49 420 45 94 -2 149 -9 200 -24z m2305
-201 c36 -6 318 -96 626 -200 596 -200 597 -200 955 -251 189 -27 592 -37 761
-19 l120 12 39 -38 c21 -21 39 -43 39 -49 0 -6 -11 -22 -25 -35 -24 -23 -32
-24 -133 -22 -59 1 -123 -2 -142 -7 -33 -8 -31 -9 23 -10 64 -1 144 -18 153
-33 7 -10 -21 -45 -48 -59 -10 -5 -40 -14 -68 -19 -28 -5 -66 -21 -83 -35 -48
-36 -122 -49 -206 -36 -58 9 -75 8 -107 -5 -31 -13 -56 -15 -119 -9 -44 3
-147 7 -230 8 -136 2 -157 5 -225 30 -56 20 -98 28 -165 31 -61 2 -115 12
-169 29 -44 14 -83 24 -88 21 -5 -3 -39 -5 -76 -5 -76 0 -139 18 -210 60 -38
22 -53 26 -72 19 -43 -17 -160 -4 -225 25 -37 15 -88 28 -133 31 -40 4 -114
19 -164 36 -51 16 -94 28 -95 26 -2 -2 23 -17 54 -34 l58 -31 -55 0 c-30 0
-85 8 -122 18 l-68 17 32 -26 c19 -16 28 -31 24 -38 -19 -31 -151 1 -275 68
-30 17 -56 28 -58 26 -4 -4 73 -75 107 -98 25 -17 25 -17 -35 -17 -71 -1 -125
21 -184 74 -65 59 -46 10 27 -66 l34 -37 -72 -42 c-82 -48 -164 -83 -260 -112
-87 -26 -282 -35 -402 -18 -88 13 -91 14 -119 53 -30 41 -27 56 11 57 8 0 21
4 29 9 11 7 10 13 -4 35 -17 25 -17 26 11 36 73 26 89 51 51 80 -29 23 -28 40
2 40 11 0 29 8 42 18 l22 19 -26 7 c-32 8 -33 15 -7 66 26 52 26 53 -15 46
-36 -7 -110 8 -120 24 -9 14 163 137 265 189 118 60 175 76 265 76 77 -1 115
-12 189 -58 l49 -31 -39 -34 c-51 -44 -160 -96 -254 -121 -41 -11 -63 -20 -49
-20 105 -3 412 132 527 231 105 90 259 125 432 98z m-1810 -158 c19 -9 61 -38
92 -64 72 -59 238 -143 315 -158 89 -19 92 -20 58 -34 -28 -12 -29 -13 -9 -20
12 -3 29 -15 39 -26 18 -19 17 -20 -4 -20 -12 0 -31 -4 -41 -10 -17 -9 -17
-12 11 -39 41 -42 38 -59 -11 -59 -22 -1 -49 -4 -60 -7 -20 -6 -20 -6 0 -35
28 -39 25 -46 -15 -46 -19 0 -37 -2 -40 -5 -3 -3 2 -22 10 -42 22 -52 19 -60
-13 -43 -15 8 -45 18 -66 22 l-39 7 5 -32 c4 -28 2 -31 -22 -31 -14 0 -31 -5
-37 -11 -14 -14 -79 71 -152 199 -27 48 -62 99 -78 114 -43 41 -116 69 -199
75 -81 6 -84 15 -20 44 l41 19 -50 -1 c-27 0 -74 -8 -102 -18 -29 -10 -53 -16
-53 -13 0 23 62 77 123 107 44 22 80 47 92 66 25 37 107 79 155 79 20 0 51 -8
70 -18z m1841 -498 c62 -15 73 -15 146 0 139 28 118 36 459 -170 170 -102 311
-188 313 -190 12 -11 -23 -27 -61 -28 -33 -1 -54 7 -88 30 -54 38 -150 87
-157 81 -2 -3 13 -15 34 -28 53 -33 114 -89 107 -100 -3 -5 -25 -9 -50 -9 -34
0 -55 8 -91 33 -58 41 -123 80 -123 75 0 -3 30 -28 66 -58 36 -29 61 -56 57
-61 -8 -7 -49 -12 -88 -10 -12 1 -50 22 -85 47 l-65 47 54 -56 c54 -55 54 -56
29 -62 -15 -4 -36 -1 -50 7 -13 7 -147 110 -297 228 -271 214 -272 215 -244
227 38 16 57 16 134 -3z"/>
<path d="M1373 7035 c23 -79 81 -339 102 -457 47 -266 66 -496 85 -998 30
-802 107 -1126 350 -1472 80 -115 264 -301 388 -393 51 -38 89 -72 85 -75 -5
-4 -84 -55 -178 -115 -93 -59 -179 -114 -191 -122 -20 -12 -24 -8 -83 87 l-63
99 -46 -23 c-180 -91 -290 -240 -309 -418 l-6 -57 39 -16 c118 -51 255 -59
364 -22 73 25 200 93 200 107 0 5 -23 53 -51 105 -28 53 -50 98 -48 99 2 2 91
60 198 129 l194 125 72 -141 c231 -459 528 -806 1165 -1362 339 -296 635 -589
784 -775 132 -165 286 -395 286 -427 0 -19 5 -23 30 -23 l30 0 -20 53 c-18 48
-94 688 -428 3586 l-37 325 -1425 1041 c-1387 1014 -1426 1043 -1452 1095 -31
59 -44 76 -35 45z m1357 -1084 c685 -502 1262 -927 1283 -943 l37 -30 -59 -46
c-33 -26 -60 -51 -61 -55 0 -5 25 -45 56 -89 31 -44 53 -83 48 -87 -16 -15
-1370 -880 -1387 -887 -11 -4 -17 -1 -17 7 0 8 -28 32 -63 55 -314 207 -545
514 -660 881 -66 209 -100 401 -147 828 -74 675 -125 905 -274 1238 -15 32
-21 55 -14 51 7 -5 573 -420 1258 -923z m-1181 646 c83 -241 121 -444 181
-972 22 -197 52 -424 66 -504 98 -584 310 -946 724 -1242 l84 -61 39 -101 c56
-152 141 -316 238 -462 162 -243 308 -402 804 -876 461 -440 668 -688 854
-1024 52 -93 161 -333 161 -353 0 -3 -30 39 -67 93 -232 349 -441 570 -1013
1070 -113 99 -268 239 -346 312 -354 330 -616 678 -803 1062 -55 114 -62 123
-122 167 -408 299 -629 662 -708 1164 -30 187 -39 308 -56 720 -23 549 -49
820 -105 1097 -11 50 -22 104 -25 120 -9 48 52 -89 94 -210z m2579 -1692 c33
-25 67 -56 76 -69 15 -24 15 -25 -62 -69 l-77 -45 -52 72 c-29 39 -51 74 -50
78 3 9 90 78 99 78 3 0 33 -20 66 -45z m128 -166 c7 -19 16 -63 21 -97 l10
-64 -55 -24 c-30 -13 -58 -24 -61 -24 -4 0 -25 36 -46 81 -33 68 -37 82 -25
89 8 5 40 25 70 44 30 20 60 34 65 32 6 -1 15 -18 21 -37z m-150 -149 c25 -49
51 -90 58 -90 6 0 35 11 65 25 30 14 56 24 58 21 2 -2 91 -761 198 -1687 107
-926 196 -1699 199 -1718 3 -22 -20 17 -63 105 -113 231 -241 426 -420 639
-80 95 -293 311 -757 765 -155 151 -320 323 -368 382 -116 144 -245 336 -307
460 -54 107 -123 277 -116 284 4 4 1400 902 1404 903 1 1 23 -39 49 -89z
m-2204 -1097 c19 -32 42 -70 51 -84 l17 -26 -207 -118 c-115 -65 -212 -120
-217 -123 -5 -3 -6 15 -3 44 10 75 68 182 131 244 55 54 173 133 186 125 4 -3
23 -31 42 -62z m139 -247 c48 -93 51 -86 -66 -141 -125 -59 -236 -68 -364 -30
-34 11 -50 20 -44 26 5 5 101 63 214 129 143 83 206 115 212 107 4 -7 26 -48
48 -91z"/>
<path d="M8829 7000 c-23 -47 -86 -95 -1454 -1095 -1278 -934 -1431 -1049
-1438 -1078 -4 -17 -106 -894 -227 -1947 -134 -1163 -226 -1930 -235 -1952
-15 -38 -15 -38 10 -38 15 0 25 6 25 14 0 18 181 291 260 391 201 255 398 450
890 882 245 215 571 536 684 673 168 203 308 418 419 641 l72 146 193 -129
c105 -70 192 -133 192 -140 0 -6 -23 -55 -52 -109 -60 -114 -64 -101 52 -163
142 -75 284 -87 420 -37 67 24 75 31 78 55 6 47 -26 168 -60 226 -44 77 -140
168 -225 213 l-71 37 -48 -77 c-26 -43 -53 -86 -59 -95 -10 -15 -32 -3 -203
111 l-193 128 112 88 c254 203 436 445 539 718 100 264 139 533 160 1097 24
648 51 893 144 1295 25 104 43 191 42 192 -1 1 -13 -20 -27 -47z m-83 -177
c-45 -90 -97 -233 -134 -368 -60 -213 -86 -382 -157 -1005 -41 -356 -79 -547
-150 -750 -85 -242 -200 -425 -380 -605 -109 -109 -315 -271 -334 -263 -5 2
-319 203 -699 447 -579 372 -690 446 -682 460 5 9 30 43 54 77 l45 61 -70 53
c-38 29 -66 57 -62 61 13 12 2596 1899 2600 1899 2 0 -12 -30 -31 -67z m4
-143 c-59 -288 -81 -525 -105 -1110 -24 -568 -52 -783 -135 -1033 -104 -312
-307 -589 -587 -799 l-103 -77 -85 -169 c-184 -365 -439 -698 -776 -1013 -68
-64 -236 -216 -374 -336 -539 -474 -750 -697 -971 -1023 -46 -68 -84 -121 -84
-117 0 3 23 59 50 124 94 219 235 452 395 653 87 109 319 364 397 435 345 318
694 669 825 830 160 198 307 451 391 673 l39 102 76 53 c353 244 569 564 682
1012 46 179 68 322 115 739 58 512 99 734 178 966 32 94 93 242 98 237 2 -1
-10 -68 -26 -147z m-2529 -1766 c27 -20 49 -38 49 -41 0 -2 -23 -37 -51 -77
l-51 -73 -79 44 -79 45 21 26 c18 23 127 112 138 112 2 0 25 -16 52 -36z
m-143 -179 l71 -46 -41 -77 c-23 -42 -43 -79 -44 -81 -2 -2 -28 7 -58 20 -53
22 -56 24 -56 59 0 34 24 142 36 161 9 15 17 11 92 -36z m817 -495 c380 -243
692 -443 693 -445 7 -7 -72 -193 -130 -307 -32 -64 -90 -163 -128 -220 -158
-236 -263 -350 -942 -1013 -161 -158 -320 -324 -383 -400 -147 -178 -290 -397
-385 -589 -44 -88 -80 -154 -80 -146 0 26 393 3425 396 3429 2 2 31 -8 64 -23
34 -14 65 -26 71 -26 5 0 32 45 59 101 37 73 54 98 63 91 7 -5 323 -209 702
-452z m1605 -759 c97 -73 172 -192 187 -296 l6 -49 -34 20 c-19 11 -116 67
-215 124 l-182 104 47 75 c26 42 51 82 55 88 9 16 59 -8 136 -66z m-50 -251
c107 -62 201 -118 208 -125 11 -10 5 -16 -35 -29 -116 -40 -245 -30 -368 29
-119 57 -116 48 -60 153 27 50 51 90 54 88 3 -2 94 -54 201 -116z"/>
<path d="M4401 6908 c-23 -46 -46 -110 -51 -143 -6 -33 -10 -176 -10 -317 0
-142 -4 -258 -8 -258 -20 0 -93 62 -122 105 l-32 46 -41 -47 c-41 -46 -112
-104 -129 -104 -4 0 -8 51 -8 113 0 61 -5 130 -11 152 -16 60 -71 166 -83 162
-20 -6 -84 -148 -95 -211 -6 -34 -11 -98 -11 -142 l-1 -79 -34 39 c-19 22 -40
54 -47 73 -7 18 -15 33 -18 33 -4 0 -15 -18 -25 -39 -9 -22 -32 -54 -50 -71
l-33 -32 -4 134 c-4 138 -15 180 -72 276 l-19 34 -29 -51 c-16 -28 -39 -76
-51 -108 -21 -56 -22 -74 -25 -495 l-3 -438 475 0 476 0 2 -337 3 -338 98 -3
97 -3 0 36 0 35 75 0 75 0 0 45 0 45 78 0 77 0 0 208 c0 233 8 280 73 411 37
77 120 173 160 185 50 16 164 -112 212 -237 41 -106 52 -198 48 -395 l-3 -172
78 0 77 0 0 -45 0 -45 75 0 75 0 0 -35 0 -36 98 3 97 3 3 338 2 337 475 0 475
0 0 411 c0 456 -4 497 -63 603 -19 33 -38 61 -44 63 -13 5 -69 -119 -82 -185
-6 -29 -11 -96 -11 -149 l0 -97 -31 30 c-17 16 -41 49 -53 73 l-23 44 -30 -54
c-17 -30 -39 -62 -50 -72 -20 -17 -20 -16 -25 95 -6 123 -24 190 -76 280 l-30
51 -31 -61 c-45 -90 -61 -162 -61 -279 0 -57 -4 -103 -8 -103 -17 0 -88 58
-129 104 l-41 47 -32 -46 c-29 -43 -102 -105 -122 -105 -4 0 -8 121 -8 268 0
163 -5 291 -12 326 -12 61 -76 199 -93 198 -15 0 -63 -93 -80 -157 -11 -45
-15 -115 -15 -302 l0 -243 -49 0 -48 0 -7 70 c-3 38 -13 91 -22 117 -19 58
-72 153 -85 153 -13 0 -57 -92 -74 -157 -8 -31 -15 -86 -15 -120 l0 -63 -70 0
-70 0 0 58 c0 32 -7 83 -15 115 -17 65 -80 197 -95 197 -13 0 -87 -155 -99
-210 -6 -25 -11 -71 -11 -102 l0 -58 -69 0 -69 0 -4 93 c-4 80 -9 102 -41 170
-19 42 -40 77 -45 77 -13 0 -55 -75 -81 -145 -14 -37 -21 -79 -21 -125 l0 -70
-54 0 -55 0 -3 273 -3 272 -34 73 c-50 107 -53 107 -100 10z m77 -16 c12 -27
26 -77 31 -113 7 -41 11 -391 11 -976 l0 -913 -75 0 -75 0 2 958 3 957 32 68
c18 37 36 67 41 67 5 0 19 -22 30 -48z m1295 -19 l32 -68 3 -957 2 -958 -75 0
-75 0 0 908 c0 502 5 936 10 971 10 69 47 171 62 171 5 0 23 -30 41 -67z
m-657 -305 c34 -66 55 -146 61 -230 l6 -88 87 0 87 0 6 93 c5 92 34 198 60
225 11 11 19 1 47 -60 29 -62 35 -87 38 -165 l4 -93 64 0 64 0 0 -115 0 -115
-550 0 -550 0 0 115 0 115 64 0 63 0 5 94 c4 78 10 105 38 165 18 39 36 71 40
71 12 0 50 -95 60 -151 6 -29 10 -80 10 -115 l0 -64 90 0 90 0 0 53 c0 28 7
82 14 119 15 70 61 178 76 178 5 0 17 -14 26 -32z m-1574 -77 c22 -54 22 -69
26 -493 l3 -438 -75 0 -76 0 0 423 c0 394 1 428 19 481 11 31 28 70 38 86 16
28 19 29 30 13 7 -9 23 -42 35 -72z m409 6 c22 -60 23 -74 27 -499 l3 -438
-75 0 -76 0 0 418 c0 437 2 453 47 550 30 64 41 59 74 -31z m2379 -31 c19 -52
20 -85 20 -481 l0 -425 -75 0 -75 0 0 388 c0 416 7 496 46 582 l25 55 20 -32
c11 -17 29 -56 39 -87z m393 47 l32 -68 3 -442 3 -443 -71 0 -71 0 3 453 3
452 27 58 c15 31 30 57 33 57 3 0 21 -30 38 -67z m-2913 -428 l0 -85 -115 0
-115 0 0 85 0 85 115 0 115 0 0 -85z m540 0 l0 -85 -180 0 -180 0 0 85 0 85
180 0 180 0 0 -85z m1840 0 l0 -85 -180 0 -180 0 0 85 0 85 180 0 180 0 0 -85z
m410 0 l0 -85 -115 0 -115 0 0 85 0 85 115 0 115 0 0 -85z m-2790 -310 l0
-205 -115 0 -115 0 0 205 0 205 115 0 115 0 0 -205z m540 0 l0 -205 -180 0
-180 0 0 205 0 205 180 0 180 0 0 -205z m320 -310 l0 -515 -65 0 -65 0 0 515
0 515 65 0 65 0 0 -515z m810 45 l0 -470 -57 0 -58 0 0 187 c-1 161 -4 201
-23 277 -38 149 -112 266 -214 334 l-37 24 -34 -21 c-50 -31 -132 -121 -160
-177 -64 -126 -94 -311 -83 -506 l7 -118 -61 0 -60 0 0 470 0 470 390 0 390 0
0 -470z m160 -45 l0 -515 -65 0 -65 0 0 515 0 515 65 0 65 0 0 -515z m550 310
l0 -205 -180 0 -180 0 0 205 0 205 180 0 180 0 0 -205z m410 0 l0 -205 -115 0
-115 0 0 205 0 205 115 0 115 0 0 -205z"/>
<path d="M1405 2369 c-55 -43 -120 -99 -144 -124 -42 -45 -43 -48 -39 -101 6
-65 46 -128 104 -161 47 -28 88 -29 135 -5 41 21 259 190 259 200 -1 10 -26
42 -34 42 -4 0 -53 -37 -109 -81 -56 -45 -121 -91 -145 -102 -42 -21 -43 -21
-78 -2 -42 22 -74 71 -74 113 0 38 25 64 165 172 l105 81 -18 24 c-9 14 -19
24 -22 24 -3 0 -50 -36 -105 -80z"/>
<path d="M8697 2422 c-10 -10 -17 -21 -17 -25 0 -4 177 -145 328 -260 13 -10
55 19 50 34 -3 7 -335 269 -341 269 -2 0 -11 -8 -20 -18z"/>
<path d="M8595 2259 c-78 -22 -145 -116 -145 -203 0 -112 109 -222 230 -234
98 -9 205 85 217 191 7 60 -10 106 -60 163 -68 77 -158 108 -242 83z m120 -68
c47 -22 99 -74 114 -114 42 -110 -49 -214 -166 -192 -38 7 -116 72 -139 116
-34 67 -4 156 66 191 44 23 75 22 125 -1z"/>
<path d="M1587 1987 l-158 -152 23 -22 24 -23 114 115 c63 63 116 113 118 111
2 -3 -15 -90 -38 -196 -41 -184 -41 -192 -24 -211 10 -11 23 -18 30 -17 7 2
81 70 164 152 151 149 151 149 131 169 -20 20 -20 20 -137 -91 -65 -62 -119
-110 -121 -108 -2 2 15 88 38 191 l41 188 -24 23 -23 22 -158 -151z"/>
<path d="M8251 1910 l-103 -98 148 -159 c82 -87 151 -159 154 -161 4 -1 15 7
25 18 21 23 22 20 -73 121 l-44 46 76 69 c75 68 76 69 57 88 -19 19 -20 19
-79 -32 -32 -28 -65 -59 -72 -67 -12 -14 -19 -11 -61 31 l-47 47 86 82 c76 73
85 84 73 99 -7 9 -19 16 -25 16 -6 -1 -58 -45 -115 -100z"/>
<path d="M2011 1568 l-140 -162 21 -23 21 -22 40 45 c22 25 48 55 58 67 l17
22 39 -33 c70 -60 126 -92 160 -92 100 0 167 114 114 194 -19 28 -170 165
-183 166 -3 0 -69 -73 -147 -162z m227 23 c66 -62 71 -75 47 -121 -30 -58 -85
-50 -169 25 l-49 43 49 56 c26 31 50 56 53 56 3 0 34 -27 69 -59z"/>
<path d="M7874 1570 c-65 -49 -120 -94 -122 -100 -3 -7 210 -301 249 -344 8
-9 269 180 269 194 0 4 -8 14 -18 23 -16 14 -23 11 -97 -45 -44 -33 -92 -68
-106 -78 l-25 -19 -42 54 c-23 29 -42 56 -42 58 0 3 43 37 96 77 l96 72 -20
20 -20 20 -83 -62 c-46 -35 -89 -67 -95 -72 -14 -11 -91 89 -78 101 7 6 116
90 193 148 3 2 -4 13 -15 24 l-20 20 -120 -91z"/>
<path d="M2310 1329 c-63 -94 -116 -177 -118 -184 -2 -8 53 -52 132 -105 l136
-90 12 25 c6 14 9 27 7 29 -2 1 -47 31 -99 66 -52 34 -99 66 -104 71 -5 4 8
34 29 67 l39 60 98 -66 c82 -54 100 -63 113 -52 8 7 15 18 15 24 0 6 -43 40
-95 75 -52 36 -95 67 -95 70 0 3 16 27 35 54 l35 47 107 -71 c100 -67 107 -71
120 -53 7 10 12 22 11 26 -3 8 -249 178 -257 178 -3 -1 -58 -78 -121 -171z"/>
<path d="M7668 1407 c-15 -12 -13 -18 21 -73 21 -32 61 -96 89 -141 l51 -82
-32 14 c-18 7 -97 43 -176 79 -80 36 -152 66 -160 66 -9 0 -24 -7 -35 -15 -18
-13 -13 -23 94 -195 62 -99 116 -182 120 -185 4 -3 17 3 29 13 20 17 20 18
-64 151 -47 74 -83 136 -82 138 2 2 84 -33 182 -77 169 -77 179 -80 201 -65
13 9 24 18 24 22 0 16 -223 363 -234 363 -6 0 -19 -6 -28 -13z"/>
<path d="M2646 1143 c-85 -154 -96 -194 -70 -249 32 -68 138 -123 211 -109 53
10 87 49 168 195 l75 135 -23 17 c-12 10 -24 18 -27 17 -3 0 -39 -61 -79 -135
-96 -174 -118 -192 -195 -160 -100 42 -101 86 -1 266 67 122 73 136 58 148 -9
6 -22 12 -29 12 -7 0 -47 -61 -88 -137z"/>
<path d="M7319 1193 l-26 -16 67 -121 c84 -152 96 -186 78 -223 -18 -38 -95
-78 -132 -69 -40 10 -63 39 -140 180 l-69 125 -28 -14 -28 -15 70 -127 c83
-151 128 -202 186 -210 77 -10 192 63 209 134 11 42 -11 106 -78 227 -87 157
-79 147 -109 129z"/>
<path d="M2997 892 c-85 -176 -94 -198 -79 -210 30 -23 43 -12 79 63 19 41 37
75 38 75 2 0 36 -16 76 -35 96 -46 145 -47 194 -4 59 52 66 128 17 183 -9 10
-65 42 -123 72 l-106 53 -96 -197z m270 40 c29 -25 29 -61 2 -96 -28 -35 -64
-34 -142 5 -34 17 -63 33 -65 34 -2 1 11 32 29 68 l32 64 61 -27 c33 -15 70
-37 83 -48z"/>
<path d="M3350 734 c-41 -108 -76 -200 -78 -204 -1 -4 54 -29 124 -56 122 -46
127 -47 140 -29 8 10 14 22 14 25 0 4 -45 24 -100 45 -55 20 -100 39 -100 40
0 2 29 79 65 171 36 93 65 174 65 180 0 12 -22 24 -43 24 -7 0 -46 -88 -87
-196z"/>
<path d="M6412 796 c-160 -50 -163 -51 -157 -76 4 -14 8 -26 9 -27 1 -1 31 7
66 18 35 11 67 16 70 12 6 -7 71 -211 102 -320 9 -33 29 -42 57 -24 11 7 4 40
-39 182 -29 96 -53 178 -54 182 0 5 29 18 67 30 60 18 67 22 61 41 -3 12 -9
24 -13 27 -3 3 -79 -17 -169 -45z"/>
<path d="M3649 618 c-30 -112 -54 -207 -54 -212 0 -6 14 -13 30 -18 17 -4 87
-23 158 -42 l127 -34 6 24 c4 14 4 27 1 30 -2 3 -58 19 -123 36 -66 17 -121
33 -123 34 -9 7 32 134 43 134 6 0 52 -11 101 -25 50 -14 98 -25 107 -25 15 0
36 36 26 45 -2 2 -52 17 -111 33 -59 16 -110 32 -113 35 -8 8 26 117 37 117 5
0 59 -14 119 -31 61 -16 115 -27 120 -24 6 3 10 16 10 28 0 20 -14 26 -143 60
-78 20 -147 37 -153 37 -6 0 -35 -91 -65 -202z"/>
<path d="M6177 733 c-11 -3 -16 -11 -13 -21 20 -67 57 -277 54 -308 -2 -31
-10 -43 -37 -61 -47 -32 -114 -31 -145 0 -23 23 -29 42 -79 272 -12 57 -14 60
-41 58 -16 -1 -30 -4 -32 -5 -7 -7 65 -307 81 -337 26 -51 70 -73 140 -69 74
4 133 33 160 79 26 45 23 109 -13 269 -28 127 -32 134 -75 123z"/>
<path d="M5587 630 c-32 -4 -59 -9 -61 -11 -4 -5 41 -429 47 -435 9 -9 227 26
256 41 80 41 79 172 -1 206 l-29 12 20 21 c46 49 32 130 -29 161 -31 16 -103
18 -203 5z m191 -82 c14 -31 3 -72 -23 -82 -9 -3 -48 -9 -86 -12 l-69 -7 0 39
c0 21 -3 49 -6 61 -7 27 8 32 101 30 65 -2 71 -4 83 -29z m20 -164 c16 -11 22
-25 22 -54 0 -53 -25 -68 -123 -76 l-77 -7 0 40 c0 22 -3 54 -6 71 -6 29 -4
31 27 35 80 9 135 7 157 -9z"/>
<path d="M4544 564 c-3 -37 -7 -117 -8 -179 -1 -127 8 -151 75 -190 49 -29
157 -28 196 1 59 44 65 67 87 342 l6 72 -33 0 -33 0 -11 -152 c-6 -84 -16
-165 -23 -179 -22 -48 -101 -64 -160 -34 -43 22 -51 66 -40 205 15 180 15 180
-19 180 -29 0 -30 -1 -37 -66z"/>
<path d="M5242 440 c6 -162 5 -169 -11 -147 -10 12 -62 86 -115 165 -95 137
-100 142 -134 142 l-35 0 6 -152 c4 -83 7 -182 7 -220 l0 -68 31 0 31 0 -3
164 c-2 90 -1 162 2 161 3 -2 54 -74 114 -160 59 -86 112 -158 116 -161 4 -2
20 -2 34 2 24 6 25 9 25 83 0 42 -3 140 -7 219 l-6 142 -30 0 -30 0 5 -170z"/>
</g>
</svg>
